# xmcd CD database file
#
# Track frame offsets:
#	150
#	38033
#	122807
#	163667
#	217585
#
# Disc length: 3942 seconds
#
# Revision: 0
# Processed by: cddbd v1.5.2PL0 Copyright (c) Steve Scherf et al.
# Submitted via: CDex 1.51
#
DISCID=380f6405
DTITLE=Joachim Kuhn - Live In Europe Vol.2
DYEAR=1993
DGENRE=Jazz
TTITLE0=Zerkall
TTITLE1=Guylene
TTITLE2=Sensitive Details
TTITLE3=Hanging Out In Calcutta
TTITLE4=Para
EXTD=YEAR: 1993
EXTT0=
EXTT1=
EXTT2=
EXTT3=
EXTT4=
PLAYORDER=
